<svg version="1.1" baseProfile="full" width="512" height="512" xmlns="http://www.w3.org/2000/svg">
    <circle cx="256" cy="256" r="256" fill="white" />

    <g transform="translate(0, 512) scale(0.05, -0.05)"
        fill="#000000" stroke="none">
        <path
            d="M4650 9735 c-60 -19 -207 -35 -322 -35 -156 -1 -310 -29 -428 -80
-36 -16 -102 -34 -150 -40 -48 -7 -113 -24 -150 -40 -36 -15 -110 -44 -165
-63 -138 -49 -349 -146 -544 -252 -577 -311 -1292 -922 -1623 -1386 -90 -125
-297 -473 -346 -579 -155 -336 -247 -844 -259 -1430 -6 -316 7 -645 37 -952
29 -302 39 -370 75 -514 18 -71 41 -188 50 -260 24 -190 73 -359 160 -549 115
-252 216 -433 335 -597 59 -82 491 -515 600 -601 130 -103 344 -248 446 -301
125 -66 188 -115 192 -149 2 -15 -10 -91 -27 -169 -16 -79 -34 -183 -40 -233
-12 -106 -29 -446 -33 -660 l-3 -150 100 -57 100 -57 7 117 c4 64 11 230 17
369 11 266 21 329 123 812 l32 153 -27 53 c-30 57 -65 81 -157 110 -30 9 -118
48 -195 85 -122 60 -168 91 -355 235 -347 269 -471 385 -644 600 -180 225
-268 387 -292 536 -19 119 -34 178 -94 364 -35 109 -58 208 -84 360 -70 422
-71 433 -71 1220 0 757 2 803 50 980 13 50 40 151 59 227 75 297 195 561 363
797 165 231 243 322 452 531 229 229 416 388 686 581 141 102 529 346 629 396
148 74 380 162 512 193 68 16 159 43 201 59 71 27 246 80 333 102 19 5 107 9
194 9 131 0 175 -4 248 -22 88 -22 90 -22 156 -4 42 11 135 22 252 28 l186 11
70 -31 c81 -36 116 -44 274 -67 146 -21 567 -115 691 -154 52 -16 123 -37 158
-46 174 -44 619 -250 892 -413 322 -193 874 -693 1101 -998 132 -178 284 -429
365 -605 83 -180 230 -623 283 -852 11 -49 35 -141 54 -205 39 -136 47 -191
82 -637 20 -257 25 -362 20 -475 -8 -175 -41 -416 -67 -485 -20 -54 -148 -373
-223 -552 -25 -61 -58 -145 -72 -185 -60 -167 -204 -400 -445 -718 -174 -231
-423 -480 -579 -582 -95 -62 -315 -170 -495 -243 -214 -87 -306 -140 -336
-192 -37 -65 -30 -208 18 -332 13 -36 64 -178 113 -316 84 -240 146 -403 212
-565 17 -41 41 -102 54 -135 14 -37 28 -59 36 -57 23 6 228 133 228 141 0 5
-12 40 -26 77 -14 38 -43 123 -64 189 -73 233 -186 543 -244 667 -48 103 -47
131 6 180 23 21 47 38 53 38 7 0 68 27 136 61 68 33 149 71 181 84 72 29 218
115 373 218 82 55 152 113 220 181 157 159 514 606 602 755 57 96 256 494 273
546 7 22 37 92 66 156 79 175 158 397 198 556 25 96 64 412 71 578 6 127 4
170 -13 280 -12 72 -26 207 -32 300 -15 235 -25 307 -75 563 -64 323 -129 557
-208 742 -77 180 -216 480 -284 612 -104 203 -389 565 -624 793 -284 275 -687
584 -984 753 -113 64 -477 223 -610 267 -55 18 -129 45 -165 60 -36 15 -135
50 -220 77 -138 44 -226 65 -566 138 -115 25 -283 40 -446 40 -174 0 -367 17
-462 40 -93 23 -115 24 -176 5z" />
        <path
            d="M1981 6949 c-24 -39 -28 -73 -46 -389 -9 -140 -20 -291 -26 -336 -10
-75 -9 -85 11 -128 22 -46 71 -96 94 -96 16 0 56 29 83 60 40 46 47 105 47
435 1 353 -6 410 -56 457 -42 39 -82 38 -107 -3z" />
        <path
            d="M4829 6755 c-48 -26 -62 -90 -84 -369 -30 -381 -18 -531 46 -577 44
-31 96 -31 120 1 52 69 113 491 91 626 -18 111 -72 282 -98 309 -26 28 -38 30
-75 10z" />
        <path
            d="M3735 5780 c-55 -5 -244 -16 -420 -24 -338 -17 -347 -18 -575 -65
-152 -32 -170 -41 -170 -90 1 -94 21 -216 43 -263 22 -49 185 -287 295 -433
180 -236 329 -364 407 -349 72 14 203 130 297 264 59 84 154 246 256 435 44
83 97 177 116 210 36 58 76 168 76 206 0 32 -23 69 -55 89 -40 24 -135 31
-270 20z m40 -211 c17 -16 18 -23 8 -49 -16 -43 -223 -395 -309 -526 -148
-225 -184 -222 -375 31 -72 95 -299 433 -310 462 -24 63 27 90 139 73 50 -8
103 -8 184 -1 62 6 219 15 348 22 129 6 237 13 240 16 9 8 55 -9 75 -28z" />
    </g>
</svg>